<svg enable-background="new 0 0 517 120" viewBox="0 0 517 120" xmlns="http://www.w3.org/2000/svg">
    <path
        d="m370.4 50.1c-14.3 6.5-28.3 11.2-41.8 14.5 73.8 29.1 120.4 34.1 180.2 10.7 2.8-1.1 5.5-2.2 8.1-3.4v-17.4c-41.2 12.1-85.7 9.3-146.5-4.4z"
        fill="#cb2b28" opacity=".7" />
    <path d="m-.8 113c17.3-9.4 37.4-19.7 59.3-29.9-25.4-3.9-45.2-11.8-59.3-19.1z" fill="#cb2b28"
        opacity=".7" />
    <path
        d="m154.9 29c-1.8.2-3.7.3-5.5.5-.6.1-1.3.1-1.9.2-1.2.1-2.4.2-3.6.4-.7.1-1.5.2-2.2.2-1.1.1-2.2.2-3.3.4-.8.1-1.6.2-2.3.3-1.1.1-2.1.2-3.2.4-.8.1-1.6.2-2.4.3-1 .1-2 .3-3.1.4-.8.1-1.6.2-2.5.3-1 .1-2 .3-3 .4-.8.1-1.7.2-2.5.4-1 .1-2 .3-3 .4-.8.1-1.7.3-2.5.4-1 .1-1.9.3-2.9.4-.9.1-1.7.3-2.6.4-1 .2-1.9.3-2.9.5-.8.1-1.7.3-2.5.4-1 .2-1.9.3-2.9.5-.8.1-1.7.3-2.5.4-.9.2-1.9.3-2.8.5s-1.7.3-2.5.5c-.9.2-1.8.3-2.8.5-.9.2-1.7.3-2.6.5s-1.8.4-2.7.5c-.9.2-1.7.3-2.6.5s-1.8.4-2.7.5c-.9.2-1.7.3-2.6.5s-1.8.4-2.6.5c-.9.2-1.7.4-2.6.5-.8.2-1.7.4-2.5.5-.9.2-1.7.4-2.6.6-.8.2-1.6.4-2.4.5-.9.2-1.8.4-2.7.6-.8.2-1.5.3-2.3.5-.9.2-1.8.4-2.8.6-.7.2-1.4.3-2.1.5-.7.4-1.7.6-2.6.8-.6.2-1.3.3-1.9.5-1 .2-2 .5-3 .7-.5.1-1 .3-1.6.4-1.1.3-2.2.5-3.3.8-.3.1-.6.1-.9.2-13.5 3.3-26.2 6.8-37.4 10-1.3.4-2.5.7-3.8 1.1v4.1c14.1 7.3 34 15.1 59.3 19.1 35.2-16.3 74.9-32.1 114.4-42.7-6.3-3.7-12.4-7.5-18-11.4z"
        fill="#cb2c28" />
    <path
        d="m370.4 50.1c60.8 13.7 105.2 16.5 146.6 4.4v-1c-21.6-11.9-54.1-26.5-94.3-34-17.9 12.9-35.4 22.9-52.3 30.6z"
        fill="#cb2b28" opacity=".7" />
    <path
        d="m370.4 50.1c60.8 13.7 105.2 16.5 146.6 4.4v-1c-21.6-11.9-54.1-26.5-94.3-34-17.9 12.9-35.4 22.9-52.3 30.6z"
        fill="#cb2b28" opacity=".7" />
    <path
        d="m260.4 36.4c-7.9 3.2-15.8 6.9-23.9 11-8.2 4.2-16.2 7.9-24 11.3 33 11.6 72.3 16.6 116.1 5.9-15.8-6.2-32.8-13.6-51.5-22-5.3-2.4-10.9-4.4-16.7-6.2z"
        fill="#cb2b28" opacity=".53" />
    <path
        d="m260.4 36.4c-10.3-3.1-21.4-5.4-32.9-6.8-17.8 2.1-36.2 5.9-54.5 10.8 11.9 6.9 25.2 13.2 39.6 18.3 7.8-3.4 15.8-7.2 24-11.3 8-4.1 15.9-7.7 23.8-11z"
        fill="#cb2c28" />
    <path
        d="m305.7 33.5c-7.9-2.2-16.2-3.7-24.8-4.7-6.8 2.2-13.6 4.7-20.5 7.6 5.8 1.8 11.4 3.8 16.7 6.2 18.7 8.4 35.7 15.8 51.5 22 13.5-3.3 27.4-8 41.8-14.5-19.7-4.4-41.1-10-64.7-16.6z"
        fill="#cb2b28" opacity=".7" />
    <path
        d="m305.7 33.5c-7.9-2.2-16.2-3.7-24.8-4.7-6.8 2.2-13.6 4.7-20.5 7.6 5.8 1.8 11.4 3.8 16.7 6.2 18.7 8.4 35.7 15.8 51.5 22 13.5-3.3 27.4-8 41.8-14.5-19.7-4.4-41.1-10-64.7-16.6z"
        fill="#cb2b28" opacity=".53" />
    <path
        d="m227.5 29.6c11.6 1.4 22.6 3.7 32.9 6.8 6.9-2.8 13.7-5.3 20.5-7.6-16.9-1.8-34.9-1.4-53.4.8z"
        fill="#cb2c28" />
    <path
        d="m227.5 29.6c11.6 1.4 22.6 3.7 32.9 6.8 6.9-2.8 13.7-5.3 20.5-7.6-16.9-1.8-34.9-1.4-53.4.8z"
        fill="#cb2b28" opacity=".7" />
    <path
        d="m154.9 29c5.6 3.9 11.6 7.7 18 11.4 18.4-4.9 36.7-8.7 54.5-10.8-22.7-2.8-47.4-2.6-72.5-.6z"
        fill="#cb2c28" />
    <g fill="#cb2b28">
        <path
            d="m154.9 29c5.6 3.9 11.6 7.7 18 11.4 18.4-4.9 36.7-8.7 54.5-10.8-22.7-2.8-47.4-2.6-72.5-.6z"
            opacity=".7" />
        <path
            d="m280.9 28.8c8.6.9 16.9 2.5 24.8 4.7 23.6 6.6 45 12.1 64.7 16.6 16.9-7.7 34.4-17.7 52.3-30.6-40.7-7.7-89.2-8-141.8 9.3z"
            opacity=".7" />
        <path
            d="m280.9 28.8c8.6.9 16.9 2.5 24.8 4.7 23.6 6.6 45 12.1 64.7 16.6 16.9-7.7 34.4-17.7 52.3-30.6-40.7-7.7-89.2-8-141.8 9.3z"
            opacity=".7" />
        <path
            d="m280.9 28.8c8.6.9 16.9 2.5 24.8 4.7 23.6 6.6 45 12.1 64.7 16.6 16.9-7.7 34.4-17.7 52.3-30.6-40.7-7.7-89.2-8-141.8 9.3z"
            opacity=".53" />
    </g>
    <path
        d="m447.8-.1h-328.4-120.2v60 4.1c14.1 7.3 34 15.1 59.3 19.1 38.8 6.1 90.5 3.2 154-24.4 7.8-3.4 15.8-7.2 24-11.3 8-4.1 16-7.7 23.9-11 6.9-2.8 13.7-5.3 20.5-7.6 52.6-17.3 101.1-17 141.8-9.4 40.1 7.5 72.7 22.1 94.3 34v-53.5z"
        fill="#cb2c28" />
</svg>