<?xml version="1.0" encoding="utf-8"?>
<!-- Generator: Adobe Illustrator 21.0.0, SVG Export Plug-In . SVG Version: 6.00 Build 0)  -->
<svg version="1.1" id="Layer_1" xmlns="http://www.w3.org/2000/svg" xmlns:xlink="http://www.w3.org/1999/xlink" x="0px" y="0px"
	 viewBox="0 0 517 120" style="enable-background:new 0 0 517 120;" xml:space="preserve">
<style type="text/css">
	.st0{opacity:0.7;fill:#CB2B28;enable-background:new    ;}
	.st1{fill:#CB2C28;}
	.st2{opacity:0.53;fill:#CB2B28;enable-background:new    ;}
</style>
<g>
	<path class="st0" d="M370.4,50.1c-14.3,6.5-28.3,11.2-41.8,14.5c73.8,29.1,120.4,34.1,180.2,10.7c2.8-1.1,5.5-2.2,8.1-3.4V54.5
		C475.7,66.6,431.2,63.8,370.4,50.1z"/>
	<path class="st0" d="M-0.8,113c17.3-9.4,37.4-19.7,59.3-29.9C33.1,79.2,13.3,71.3-0.8,64V113z"/>
	<path class="st1" d="M154.9,29c-1.8,0.2-3.7,0.3-5.5,0.5c-0.6,0.1-1.3,0.1-1.9,0.2c-1.2,0.1-2.4,0.2-3.6,0.4
		c-0.7,0.1-1.5,0.2-2.2,0.2c-1.1,0.1-2.2,0.2-3.3,0.4c-0.8,0.1-1.6,0.2-2.3,0.3c-1.1,0.1-2.1,0.2-3.2,0.4c-0.8,0.1-1.6,0.2-2.4,0.3
		c-1,0.1-2,0.3-3.1,0.4c-0.8,0.1-1.6,0.2-2.5,0.3c-1,0.1-2,0.3-3,0.4c-0.8,0.1-1.7,0.2-2.5,0.4c-1,0.1-2,0.3-3,0.4
		c-0.8,0.1-1.7,0.3-2.5,0.4c-1,0.1-1.9,0.3-2.9,0.4c-0.9,0.1-1.7,0.3-2.6,0.4c-1,0.2-1.9,0.3-2.9,0.5c-0.8,0.1-1.7,0.3-2.5,0.4
		c-1,0.2-1.9,0.3-2.9,0.5c-0.8,0.1-1.7,0.3-2.5,0.4c-0.9,0.2-1.9,0.3-2.8,0.5c-0.9,0.2-1.7,0.3-2.5,0.5c-0.9,0.2-1.8,0.3-2.8,0.5
		c-0.9,0.2-1.7,0.3-2.6,0.5c-0.9,0.2-1.8,0.4-2.7,0.5c-0.9,0.2-1.7,0.3-2.6,0.5c-0.9,0.2-1.8,0.4-2.7,0.5c-0.9,0.2-1.7,0.3-2.6,0.5
		c-0.9,0.2-1.8,0.4-2.6,0.5c-0.9,0.2-1.7,0.4-2.6,0.5c-0.8,0.2-1.7,0.4-2.5,0.5c-0.9,0.2-1.7,0.4-2.6,0.6c-0.8,0.2-1.6,0.4-2.4,0.5
		c-0.9,0.2-1.8,0.4-2.7,0.6c-0.8,0.2-1.5,0.3-2.3,0.5c-0.9,0.2-1.8,0.4-2.8,0.6c-0.7,0.2-1.4,0.3-2.1,0.5C53,45.8,52,46,51.1,46.2
		c-0.6,0.2-1.3,0.3-1.9,0.5c-1,0.2-2,0.5-3,0.7c-0.5,0.1-1,0.3-1.6,0.4c-1.1,0.3-2.2,0.5-3.3,0.8c-0.3,0.1-0.6,0.1-0.9,0.2
		C26.9,52.1,14.2,55.6,3,58.8c0,0,0,0,0,0c-1.3,0.4-2.5,0.7-3.8,1.1V64c14.1,7.3,34,15.1,59.3,19.1C93.7,66.8,133.4,51,172.9,40.4
		C166.6,36.7,160.5,32.9,154.9,29z"/>
	<path class="st0" d="M370.4,50.1c60.8,13.7,105.2,16.5,146.6,4.4v-1c-21.6-11.9-54.1-26.5-94.3-34
		C404.8,32.4,387.3,42.4,370.4,50.1z"/>
	<path class="st0" d="M370.4,50.1c60.8,13.7,105.2,16.5,146.6,4.4v-1c-21.6-11.9-54.1-26.5-94.3-34
		C404.8,32.4,387.3,42.4,370.4,50.1z"/>
	<path class="st2" d="M260.4,36.4c-7.9,3.2-15.8,6.9-23.9,11c-8.2,4.2-16.2,7.9-24,11.3c33,11.6,72.3,16.6,116.1,5.9
		c-15.8-6.2-32.8-13.6-51.5-22C271.8,40.2,266.2,38.2,260.4,36.4z"/>
	<path class="st1" d="M260.4,36.4c-10.3-3.1-21.4-5.4-32.9-6.8c-17.8,2.1-36.2,5.9-54.5,10.8c11.9,6.9,25.2,13.2,39.6,18.3
		c7.8-3.4,15.8-7.2,24-11.3C244.6,43.3,252.5,39.7,260.4,36.4z"/>
	<path class="st0" d="M305.7,33.5c-7.9-2.2-16.2-3.7-24.8-4.7c-6.8,2.2-13.6,4.7-20.5,7.6c5.8,1.8,11.4,3.8,16.7,6.2
		c18.7,8.4,35.7,15.8,51.5,22c13.5-3.3,27.4-8,41.8-14.5C350.7,45.7,329.3,40.1,305.7,33.5z"/>
	<path class="st2" d="M305.7,33.5c-7.9-2.2-16.2-3.7-24.8-4.7c-6.8,2.2-13.6,4.7-20.5,7.6c5.8,1.8,11.4,3.8,16.7,6.2
		c18.7,8.4,35.7,15.8,51.5,22c13.5-3.3,27.4-8,41.8-14.5C350.7,45.7,329.3,40.1,305.7,33.5z"/>
	<path class="st1" d="M227.5,29.6c11.6,1.4,22.6,3.7,32.9,6.8c6.9-2.8,13.7-5.3,20.5-7.6C264,27,246,27.4,227.5,29.6z"/>
	<path class="st0" d="M227.5,29.6c11.6,1.4,22.6,3.7,32.9,6.8c6.9-2.8,13.7-5.3,20.5-7.6C264,27,246,27.4,227.5,29.6z"/>
	<path class="st1" d="M154.9,29c5.6,3.9,11.6,7.7,18,11.4c18.4-4.9,36.7-8.7,54.5-10.8C204.7,26.8,180,27,154.9,29z"/>
	<path class="st0" d="M154.9,29c5.6,3.9,11.6,7.7,18,11.4c18.4-4.9,36.7-8.7,54.5-10.8C204.7,26.8,180,27,154.9,29z"/>
	<path class="st0" d="M280.9,28.8c8.6,0.9,16.9,2.5,24.8,4.7c23.6,6.6,45,12.1,64.7,16.6c16.9-7.7,34.4-17.7,52.3-30.6
		C382,11.8,333.5,11.5,280.9,28.8z"/>
	<path class="st0" d="M280.9,28.8c8.6,0.9,16.9,2.5,24.8,4.7c23.6,6.6,45,12.1,64.7,16.6c16.9-7.7,34.4-17.7,52.3-30.6
		C382,11.8,333.5,11.5,280.9,28.8z"/>
	<path class="st2" d="M280.9,28.8c8.6,0.9,16.9,2.5,24.8,4.7c23.6,6.6,45,12.1,64.7,16.6c16.9-7.7,34.4-17.7,52.3-30.6
		C382,11.8,333.5,11.5,280.9,28.8z"/>
	<path class="st1" d="M447.8-0.1H119.4H-0.8v60V64c14.1,7.3,34,15.1,59.3,19.1c38.8,6.1,90.5,3.2,154-24.4c7.8-3.4,15.8-7.2,24-11.3
		c8-4.1,16-7.7,23.9-11c6.9-2.8,13.7-5.3,20.5-7.6c52.6-17.3,101.1-17,141.8-9.4c40.1,7.5,72.7,22.1,94.3,34V-0.1H447.8z"/>
</g>
</svg>
