<svg enable-background="new 0 0 1200 1200" viewBox="0 0 1200 1200" xmlns="http://www.w3.org/2000/svg"><path d="m411.7 255.8c18.6 13.5 28.4 36.6 21.4 57.2-13.2 38.9-13.9 79.3-18.4 119.3-1.9 16.7-5.2 32.7-12.5 48.3-13 27.8-24.6 56.4-36.4 84.8-2.2 5.2-3.3 11.1-3.8 16.7-.8 8.3 3.7 13.7 11.6 15.7 7.4 1.9 12.1-2.6 15.1-8.5 5.5-10.5 9.7-21.6 15.5-31.8 11.5-20.2 23.5-40.1 35.7-59.9 2.5-4.1 5.3-10.4 11.9-7.3 6.1 2.9 7.8 8.8 6.7 15.5-8.8 50.3-17.5 100.5-26.2 150.8-.6 3.2-1 6.6-.3 9.8 1.2 6.2 5.1 10.1 11.6 11.3 7 1.3 12.6-1.8 15.2-7.4 4-8.6 6.7-17.9 9.1-27.2 10.6-40 20.7-80 31.4-119.9 1.2-4.3 6-11.1 8.5-10.8 7.4.7 8 7.9 7.4 14.1-3.5 34.2-7.1 68.3-10.6 102.4-2 19.1-4.4 38.2-5.3 57.4-.4 7.4 1.5 15.3 4.3 22.2 4.2 10.3 15.3 12.7 22.6 4.4 5.1-5.9 9.6-14 10.5-21.6 5.7-46.3 10.2-92.8 15.5-139.1.8-7 2.6-14.1 5-20.7 2.5-6.9 8-7.3 11.2-.7 3 6.3 4.9 13.3 5.9 20.3 5.3 38.6 10.1 77.3 15.3 116 .9 6.8 2.6 13.7 5.2 20 2.5 6.3 8.9 8.4 14.9 7.7 7.3-.9 14.6-4.4 15.2-12.8.8-10.8.2-21.8-.6-32.7-2.4-32.1-5.2-64.1-7.7-96.1-1.3-15.9-2.6-31.8-3.3-47.7-.2-4.7.9-10 2.9-14.3 5.5-11.7 13.2-13.9 24-7.2 22.6 14.1 45.1 28.4 67.5 42.9 12.5 8.1 25 12.7 39.4 5.2 9-4.6 9.8-7 3.7-14.8-2.2-2.8-4.7-5.4-7.4-7.7-59.2-48.3-105-106.6-135.2-177.1-11.7-27.3-24.6-54-37.5-80.7-17.5-36.2-42.5-66.5-74.1-91.5-1.9-1.5-3.8-3.2-5.6-4.9-.6-.5-.9-1.3-1.4-2 36.7-49.1 73.3-98.1 110.5-148.1 6.1 8.3 12 16.4 18 24.4 39.1 52.1 78.6 103.8 117.4 156.2 39.7 53.7 79.4 107.4 117.8 162 19.5 27.7 37.3 56.9 54.1 86.3 45.4 79.4 81.3 162.5 95.9 253.5 9.2 57.4 11.2 114.9-.8 172.2-5.6 26.7-14.6 52.2-25.2 77.3-19.1 45.6-46.2 85.8-79.7 121.9-1.1 1.2-2.2 2.4-3.4 3.5-.6.5-1.3.9-2.8 1.8-6.7-13.3-9.8-26.8-5-40.9 11.3-33.4 9.7-68.2 12.4-102.6 1.1-13.4 1.2-27.1 3.9-40.2 2.3-11.1 7.8-21.5 11.9-32.3 9.9-26.2 19.9-52.4 29.5-78.6 1.7-4.5 2.4-9.6 2.6-14.5.3-8.4-4.2-14.1-11.7-15.6-7.6-1.6-12.1 2.9-15 8.9-7.9 16.9-14.8 34.4-23.3 50.9-8 15.6-17.5 30.5-26.8 45.4-1.6 2.6-5.9 6-8 5.4-3-.8-6.9-4.6-7.3-7.6-1-6.9-1-14.2 0-21.2 6.1-45.2 12.5-90.3 18.8-135.5.3-1.9.6-3.8.6-5.7.5-10.4-3.2-16.1-11.1-17.4-8.9-1.5-16.4 3.3-18.9 13.2-3.7 14.4-6.7 28.9-9.9 43.3-7.3 33.2-14.5 66.5-21.8 99.8-.4 1.9-.7 4-1.8 5.4-1.8 2.2-4.3 5.6-6.3 5.4-2.6-.2-5.9-2.9-7.3-5.4-1.5-2.6-1.6-6.4-1.4-9.5 3.4-52.4 7.3-104.8 10.3-157.2.5-8.1-1.7-17-5.1-24.5-5.2-11.3-18.5-11.9-25.1-1.2-3.8 6.1-6.7 13.5-7.3 20.6-3.8 47.7-6.8 95.4-10.4 143.1-.5 6.1-2.8 12.3-5 18.1-2 5.3-6.2 5.5-9.4 1.2-2.7-3.7-5.2-8.1-5.9-12.4-7.6-44.1-14.8-88.3-22-132.4-2.2-13.8-11.8-21.6-23.1-18.4-8.9 2.5-14.2 11-13 21.3 6.2 52.6 12.7 105.2 18.6 157.8.9 7.7.5 16.1-1.6 23.5-2.9 10.9-12.9 14.6-22.8 9-24.4-13.8-48.6-27.9-72.7-42.2-12.9-7.7-25.7-8.8-39.1-1.6-6 3.2-7.5 7.7-2.4 12.4 9.4 8.8 19.3 17.1 29.2 25.3 50.8 41.9 90.5 92.4 119.4 151.7 16 32.8 32.9 65.2 50.6 97.2 7.5 13.6 17.9 25.5 27.5 39-10.3 4.9-20.5 10.1-31 14.8-32.5 14.4-66.3 24.5-101.5 30-56.7 8.8-112.3 3.5-166.8-13.9-62.5-19.9-117.6-52.6-165.2-97.6-32.9-31.1-60.5-66.3-82.5-106.2-38.8-70.4-54.1-145.4-49.3-225.3 4.7-79.5 25.5-154.9 58.5-226.9 14.3-31.1 31.3-61.1 47.9-91.1 11.1-20.2 23.1-39.9 35.5-59.3 9.8-15.5 20.7-30.2 31.2-45.3 14.3-20.5 28.7-40.9 43-61.4 1.6-2.2 3.5-4.5 5.7-7.4zm-49 655.4v11c0 16.7-.1 33.5.1 50.2.2 11.7 5.1 16.5 16.7 16.7 7.4.1 14.8.3 22.1-.1 9.3-.4 14.6-5.8 14.9-15.3.3-9.6.1-19.3.1-28.9 0-10.9 0-21.8 0-33.6h9.9c17.1 0 34.1.1 51.2 0 11.2-.1 16.6-5.6 16.8-16.7.1-6.9.1-13.8 0-20.6-.2-11.1-5-15.9-16.3-16-11.6-.1-23.1 0-34.7 0-8.7 0-17.3 0-26.8 0 0-4.1 0-7 0-10 0-16.8 0-33.6 0-50.3 0-12.8-5.8-18.5-18.8-18.5-5.5 0-11 0-16.5 0-13.2.1-18.6 5.3-18.7 18.5-.1 17.1 0 34.1 0 51.2 0 2.9-.4 5.8-.7 9.2-21.2 0-41.5-.1-61.9 0-9.7.1-14.8 4.9-15.3 14.5-.4 6.3-.1 12.7-.1 19 0 14.9 4.8 19.7 19.8 19.7z" fill="#ca2b28"/><path d="m362.7 911.2c-20.4 0-39.3 0-58.3 0-15 0-19.8-4.8-19.8-19.7 0-6.3-.3-12.7.1-19 .6-9.6 5.7-14.5 15.3-14.5 20.3-.1 40.6 0 61.9 0 .3-3.5.7-6.3.7-9.2.1-17.1-.1-34.1 0-51.2.1-13.2 5.5-18.4 18.7-18.5 5.5-.1 11 0 16.5 0 13 .1 18.8 5.7 18.8 18.5v50.3 10h26.8c11.6 0 23.1-.1 34.7 0 11.3.1 16.1 4.8 16.3 16 .1 6.9.1 13.8 0 20.6-.1 11.2-5.5 16.7-16.8 16.7-17.1.1-34.1 0-51.2 0-3 0-5.9 0-9.9 0v33.6c0 9.6.2 19.3-.1 28.9-.3 9.5-5.5 14.8-14.9 15.3-7.4.4-14.7.2-22.1.1-11.6-.2-16.5-5-16.7-16.7-.2-16.7-.1-33.5-.1-50.2.1-3.3.1-6.6.1-11z" fill="#fff"/></svg>