<svg enable-background="new 0 0 512 512" viewBox="0 0 512 512" xmlns="http://www.w3.org/2000/svg"><path d="m406 332c-29.636 0-55.969 14.402-72.378 36.571l-141.27-72.195c2.37-8.052 3.648-16.567 3.648-25.376 0-11.931-2.339-23.324-6.574-33.753l148.06-88.958c16.52 19.39 41.104 31.711 68.514 31.711 49.626 0 90-40.374 90-90s-40.374-90-90-90-90 40.374-90 90c0 11.47 2.161 22.443 6.09 32.54l-148.43 89.18c-16.508-18.818-40.719-30.72-67.66-30.72-49.626 0-90 40.374-90 90s40.374 90 90 90c30.122 0 56.832-14.876 73.177-37.666l140.86 71.985c-2.623 8.434-4.037 17.395-4.037 26.681 0 49.626 40.374 90 90 90s90-40.374 90-90-40.374-90-90-90zm0-302c33.084 0 60 26.916 60 60s-26.916 60-60 60-60-26.916-60-60 26.916-60 60-60zm-300 301c-33.084 0-60-26.916-60-60s26.916-60 60-60 60 26.916 60 60-26.916 60-60 60zm300 151c-33.084 0-60-26.916-60-60s26.916-60 60-60 60 26.916 60 60-26.916 60-60 60z"/></svg>